<svg xmlns="http://www.w3.org/2000/svg" width="16" height="16" viewBox="0 0 16 16">
    <g fill="none" fill-rule="evenodd">
        <g fill="#000" fill-rule="nonzero">
            <g>
                <g>
                    <path d="M8 0C3.589 0 0 3.589 0 8s3.589 8 8 8 8-3.589 8-8-3.589-8-8-8zm4.471 5.895l-5.113 5.072c-.3.301-.782.321-1.102.02L3.549 8.521c-.32-.3-.341-.802-.06-1.123.3-.32.802-.34 1.123-.04l2.145 1.965 4.571-4.571c.321-.32.822-.32 1.143 0 .321.32.321.822 0 1.143z" transform="translate(-135 -419) translate(16 417) translate(119 2)"/>
                </g>
            </g>
        </g>
    </g>
</svg>
