<svg xmlns="http://www.w3.org/2000/svg" width="12" height="12" viewBox="0 0 12 12">
    <g fill="none" fill-rule="evenodd">
        <g fill="#6C6C6C" fill-rule="nonzero">
            <g>
                <g>
                    <path d="M8.706.323c.43-.43 1.127-.43 1.557 0l1.414 1.415c.43.43.43 1.127 0 1.556l-8.382 8.383c-.207.207-.487.324-.78.324H.473C.212 12 0 11.789 0 11.529V9.485c0-.292.116-.573.322-.778zM7.31 3.052L.988 9.375c-.028.028-.045.068-.045.11v1.572h1.573c.028 0 .054-.007.078-.02l.033-.026L8.948 4.69 7.31 3.052zM9.595.989c-.061-.061-.16-.061-.222 0L7.977 2.385l1.638 1.637 1.396-1.396c.049-.048.059-.122.03-.18l-.03-.041z" transform="translate(-90.000000, -175.000000) translate(0.000000, 128.000000) translate(90.000000, 47.000000)"/>
                </g>
            </g>
        </g>
    </g>
</svg>
