<svg width="32" height="32" viewBox="0 0 32 32" xmlns="http://www.w3.org/2000/svg">
    <g transform="translate(1 1)" fill="none" fill-rule="evenodd">
        <circle stroke="#F3F3F3" fill="#FFF" cx="15" cy="15" r="15"/>
        <path d="m14.825 18.474-.065.076-3.252 3.252-.012.012a.681.681 0 0 1-.054.046l.066-.058a.681.681 0 0 1-.479.198l-.1-.007a.679.679 0 0 1-.303-.126l-.024-.019a.681.681 0 0 1-.036-.03l-.016-.016-3.252-3.252a.677.677 0 0 1 .882-1.024l.076.066 2.096 2.095V8.677a.677.677 0 0 1 1.348-.092l.006.092.001 11.009 2.095-2.094a.678.678 0 0 1 .882-.066l.076.066c.24.24.262.617.065.882zm7.967-6.066a.678.678 0 0 1-.882.066l-.076-.066-2.095-2.095v11.01a.677.677 0 0 1-1.349.092l-.006-.092V10.312l-2.095 2.096a.678.678 0 0 1-.882.066l-.076-.066a.678.678 0 0 1-.066-.882l.066-.076 3.251-3.252.017-.016a.681.681 0 0 1 .04-.035l-.057.051a.68.68 0 0 1 .708-.158.67.67 0 0 1 .174.093l.017.012a.681.681 0 0 1 .05.044l.01.01 3.25 3.251a.677.677 0 0 1 0 .958z" fill="#000" fill-rule="nonzero"/>
    </g>
</svg>
