<svg id="Layer_1" data-name="Layer 1" xmlns="http://www.w3.org/2000/svg" width="800" height="800" viewBox="0 0 800 800"><defs><style>.cls-1{fill:none;}.cls-2{fill:#fff;}</style></defs><title>stellar-logo-freelogovectors.net_</title><rect class="cls-1" width="800" height="800"/><circle cx="400" cy="400" r="373.25"/><path class="cls-2" d="M302.57,208.94A214.49,214.49,0,0,1,526,226.44l-5.21,2.66-34.94,17.8A175.61,175.61,0,0,0,224.61,400a177.55,177.55,0,0,0,1.51,22.93L520.88,272.77l61-31.1,71.55-36.51V249L581.3,285.74l-34.91,17.79L235.64,461.86l-17.31,8.82-17.57,9-54.24,27.65V463.47l18.42-9.39a39,39,0,0,0,21.2-37.71q-.63-8.13-.63-16.32A214.51,214.51,0,0,1,302.57,208.94Z"/><path class="cls-2" d="M653.48,292.8v43.67L635,345.87a39,39,0,0,0-21.17,37.7c.41,5.45.63,11,.63,16.48A214.49,214.49,0,0,1,274,573.55l37.88-19.31,2.14-1.13A175.6,175.6,0,0,0,575.49,400.05,178.07,178.07,0,0,0,574,377L278.92,527.32l-61,31.11-71.36,36.35V551l71.85-36.61,34.92-17.82Z"/></svg>