<?xml version="1.0" encoding="UTF-8"?>
<svg width="31px" height="31px" viewBox="0 0 31 31" version="1.1" xmlns="http://www.w3.org/2000/svg" xmlns:xlink="http://www.w3.org/1999/xlink">
    <title>globe</title>
    <g id="Page-1" stroke="none" stroke-width="1" fill="none" fill-rule="evenodd">
        <g id="Connect-request" transform="translate(-34.000000, -157.000000)" fill="#9199B6" fill-rule="nonzero">
            <g id="globe" transform="translate(34.000000, 157.000000)">
                <path d="M15.36,0 C6.89064,0 0,6.89064 0,15.36 C0,23.82936 6.89064,30.72 15.36,30.72 C23.82936,30.72 30.72,23.82936 30.72,15.36 C30.72,6.89064 23.82936,0 15.36,0 Z M15.36,28.15998 C11.87304,28.15998 8.7108,26.7549 6.40002,24.4857 L6.40002,22.39998 C6.40002,21.79122 6.67254,21.39936 6.98754,20.94558 C7.3119,20.47878 7.68,19.9494 7.68,19.2 C7.68,17.97936 6.5781,17.85564 5.9856,17.7894 C5.56182,17.74188 5.16186,17.69688 4.93248,17.4675 C4.75872,17.29374 4.58496,16.97814 4.40124,16.64436 C4.03638,15.98052 3.5418,15.10266 2.60022,14.565 C3.01416,7.87776 8.57022,2.56002 15.36,2.56002 C15.7113,2.56002 16.05666,2.58486 16.40094,2.61276 C16.33086,2.65878 16.245,2.69004 16.18752,2.74752 C16.06314,2.8719 15.99504,3.04254 16.00002,3.21876 C16.00566,3.39438 16.08312,3.56064 16.2144,3.67812 C16.44438,3.88248 16.48878,3.98562 16.49754,3.98562 C16.48314,4.01622 16.36566,4.21686 15.71064,4.54938 C14.62938,5.09748 13.38066,6.21936 13.19502,7.3869 C13.11,7.91688 13.26378,8.40876 13.6275,8.77254 C13.7475,8.89254 13.90998,8.96004 14.08002,8.96004 C14.9688,8.96004 15.65562,8.6313 16.32,8.31378 C17.0019,7.9881 17.64624,7.68 18.55998,7.68 C21.07188,7.68 23.04,8.2425 23.04,8.95998 C23.04,9.22308 22.9581,9.30372 22.9269,9.33372 C22.6125,9.64308 21.54192,9.6231 20.60064,9.6087 C20.35128,9.60432 20.09628,9.59994 19.84002,9.59994 C18.97128,9.59994 18.70188,9.47304 18.39,9.32556 C18.02688,9.15432 17.61564,8.95992 16.63998,8.95992 C15.585,8.95992 13.62438,9.15054 12.34746,10.4274 C11.3031,11.47116 11.41368,12.71988 11.48622,13.54554 C11.50308,13.73556 11.52,13.91556 11.52,14.0799 C11.52,15.3405 12.80814,15.9999 14.08002,15.9999 C16.03626,15.9999 17.72754,16.36488 17.92002,16.63992 C17.92002,17.3562 18.13314,17.84556 18.30438,18.23802 C18.44688,18.56616 18.55998,18.82488 18.55998,19.19988 C18.55998,19.48986 18.51246,19.55178 18.38436,19.71678 C18.13998,20.0343 17.91996,20.3799 17.91996,21.11988 C17.91996,22.46676 19.21686,23.94426 19.36434,24.10866 C19.48746,24.24492 19.66122,24.31992 19.83996,24.31992 C19.89306,24.31992 19.94622,24.31368 19.99872,24.29994 C20.37558,24.20304 23.67996,23.29368 23.67996,21.11994 C23.67996,20.4387 23.89182,20.25492 24.21306,19.97616 C24.52806,19.70238 24.95994,19.32804 24.95994,18.55992 C24.95994,18.0468 25.87056,16.72242 26.71434,15.7893 C26.83374,15.65742 26.89308,15.4812 26.87748,15.30366 C26.86188,15.12618 26.77308,14.96304 26.6325,14.85426 C26.13498,14.46864 24.76122,13.21302 24.30126,11.9949 C24.5619,12.13116 24.88812,12.35304 25.1475,12.61242 C25.36062,12.8268 25.64628,12.92928 25.97124,12.9162 C26.48958,12.88662 27.10536,12.47706 27.68892,11.96622 C27.98742,13.04898 28.16004,14.18358 28.16004,15.36 C28.16004,22.4181 22.4181,28.15998 15.36,28.15998 Z" id="Shape"></path>
            </g>
        </g>
    </g>
</svg>