<svg width="58" height="120" xmlns="http://www.w3.org/2000/svg">
    <g fill-rule="nonzero" fill="none">
        <path d="M30.332 118.57a9.645 9.645 0 0 1-9.766.198l-8.395-4.692a17.89 17.89 0 0 1-8.48-10.789 18.09 18.09 0 0 1 1.602-13.683l8.154-14.638 12.695 38.308a9.662 9.662 0 0 0 4.19 5.297zM56.913 43.697c.32.173.47.555.355.903L47.206 74.97l-8.599-15.443-8.26-14.83c2.085-3.727 4.171-7.454 6.258-11.18a.743.743 0 0 1 1.002-.294c6.437 3.489 12.872 6.98 19.306 10.474z" fill="#B8BAC4"/>
        <path d="m47.206 74.966-12.683 38.308a9.786 9.786 0 0 1-4.19 5.297 9.662 9.662 0 0 1-4.191-5.297L13.447 74.966l16.885-30.298 16.874 30.298z" fill="#000"/>
        <path d="M30.332 44.668 13.447 74.966 2.639 42.338a51.998 51.998 0 0 1-2.35-21.84L2.112 3.197C2.368.795 5.52.128 6.692 2.239l23.64 42.429zM48.482 114.076l-8.38 4.692a9.642 9.642 0 0 1-9.767-.197 9.786 9.786 0 0 0 4.19-5.297L47.21 74.966l8.153 14.638a18.088 18.088 0 0 1 1.603 13.684 17.888 17.888 0 0 1-8.483 10.788z" fill="#B8BAC4"/>
        <g fill="#9B9DAA">
            <path d="M57.305 44.484a.611.611 0 0 1-.112.203c-.418.498-.838.997-1.26 1.496a51.017 51.017 0 0 1-17.282 13.323l-.044.021-15.553 7.35a2.437 2.437 0 0 1-2.844-.56 2.501 2.501 0 0 1-.336-2.908l10.473-18.712c2.111-3.767 4.22-7.534 6.326-11.3a.602.602 0 0 1 .809-.237l19.533 10.59c.26.14.383.45.29.734z"/>
        </g>
    </g>
</svg>
