<svg width="16" height="16" xmlns="http://www.w3.org/2000/svg">
    <path d="M6.564 2.436a.538.538 0 0 1 .073 1.072l-.073.005h-3.59a.897.897 0 0 0-.892.805l-.005.092v8.616c0 .465.353.847.806.892l.091.005h8.616a.897.897 0 0 0 .893-.806l.004-.091v-3.59a.538.538 0 0 1 1.072-.073l.005.073v3.59c0 1.05-.82 1.908-1.854 1.97l-.12.004H2.974c-1.05 0-1.908-.82-1.97-1.854L1 13.026V4.41c0-1.05.82-1.908 1.854-1.97l.12-.004h3.59zM14.462 1h.013c.02 0 .04.002.06.005L14.462 1a.54.54 0 0 1 .533.465l.003.029.001.015.001.03v3.59a.538.538 0 0 1-1.072.072l-.005-.073v-2.29L9.817 6.945a.538.538 0 0 1-.814-.701l.052-.06 4.106-4.108h-2.29a.539.539 0 0 1-.533-.464l-.005-.074c0-.272.203-.497.466-.533L10.872 1h3.59z" fill="#000" fill-rule="nonzero" stroke-linecap="round" stroke-linejoin="round"/>
</svg>
