<svg xmlns="http://www.w3.org/2000/svg" width="114" height="153" viewBox="0 0 114 153">
    <g fill="none">
        <g>
            <path fill="#B8BAC4" d="M29.026 111.34c-2.733 1.653-6.271 1.879-9.33.187l-8.015-4.434C3.451 102.54.501 92.167 5.113 83.966L12.9 70.132l12.123 36.202c.727 2.204 2.192 3.925 4.002 5.006zM55.465 39.3L45.142 70.135l-16.116-28.63L51.591 1.408c1.12-1.995 4.139-1.365 4.377.904l1.74 16.352c.746 6.957-.022 13.997-2.243 20.635z" transform="translate(28.674)"/>
            <path fill="#000" d="M45.14 70.132l-12.114 36.202c-.736 2.192-2.192 3.913-4.002 5.006-1.808-1.081-3.273-2.802-4.002-5.006L12.898 70.132l16.126-28.63 16.116 28.63z" transform="translate(28.674)"/>
            <path fill="#B8BAC4" d="M29.026 41.502l-16.125 28.63L2.578 39.298C.358 32.662-.41 25.622.335 18.66l1.74-16.352c.246-2.272 3.254-2.9 4.377-.903l22.574 40.097zM46.36 107.093l-8.005 4.434c-3.067 1.692-6.597 1.466-9.331-.187 1.81-1.09 3.263-2.811 4.002-5.006L45.14 70.132l7.788 13.834c4.612 8.201 1.662 18.575-6.568 23.127z" transform="translate(28.674)"/>
        </g>
        <g fill="#1D153E">
            <path d="M.068 21.471l.309-1.392c2.308.785 4.279 1.176 5.907 1.176 1.793 0 3.19-.362 4.192-1.084.998-.724 1.499-1.817 1.499-3.285 0-.763-.134-1.431-.4-1.997-.268-.569-.7-1.055-1.296-1.456-.598-.403-1.198-.712-1.806-.928l-2.437-.868c-1.98-.62-3.438-1.37-4.376-2.257C.722 8.493.253 7.246.253 5.638c0-1.752.607-3.094 1.825-4.022C3.295.688 4.943.224 7.028.224c1.71 0 3.36.289 4.95.865l-.31 1.268c-1.732-.515-3.248-.773-4.546-.773-3.547 0-5.319 1.347-5.319 4.034 0 1.305.386 2.277 1.157 2.919.77.641 2.021 1.241 3.75 1.8l2.682.987c.668.245 1.358.615 2.07 1.105.715.494 1.237 1.104 1.568 1.833.33.729.495 1.606.495 2.631 0 1.98-.685 3.43-2.055 4.345-1.37.919-3.089 1.376-5.15 1.376-2.357 0-4.44-.38-6.252-1.143zM36.163 1.922L29.296 1.922 29.296 22.244 27.811 22.244 27.811 1.922 20.947 1.922 20.947.593 36.163.593zM58.835 20.913L58.835 22.242 46.525 22.242 46.525.59 58.835.59 58.835 1.92 47.978 1.92 47.978 10.396 57.287 10.396 57.287 11.725 47.978 11.725 47.978 20.91 58.835 20.91zM71.517 22.244h-1.421V.593h1.421c3.32 5.815 7.64 12.332 12.96 19.547-.083-.68-.124-1.67-.124-2.97V.59h1.453v21.652h-1.453c-3.074-4.124-5.594-7.618-7.563-10.486-1.97-2.865-3.759-5.783-5.365-8.753.06 1.98.092 3.104.092 3.37v15.871zM111.663 22.244l-7.382-10.556c-1.115.763-2.554 1.6-4.31 2.508v8.048h-1.454V.593h1.453v12.094c3.237-1.733 5.686-3.526 7.346-5.382 1.66-1.857 2.748-4.093 3.264-6.712h1.453c-.392 2.104-1.118 3.985-2.18 5.645-1.062 1.66-2.532 3.2-4.408 4.624l8.04 11.382h-1.822z" transform="translate(0 129.519)"/>
        </g>
    </g>
</svg>
