<svg xmlns="http://www.w3.org/2000/svg" width="110" height="157" viewBox="0 0 110 157">
    <g fill="none" fill-rule="evenodd">
        <g fill-rule="nonzero">
            <g>
                <g>
                    <path fill="#B8BAC4" d="M29.887 113.968c-2.79 1.694-6.426 1.918-9.564.2l-8.219-4.533C3.661 104.977.648 94.343 5.38 85.925l7.97-14.172 12.427 37.11c.748 2.216 2.267 3.985 4.11 5.105zM56.984 40.123L46.4 71.728 29.887 42.39 53.024 1.295c1.146-2.042 4.234-1.395 4.483.922L59.3 18.978c.748 7.123-.025 14.346-2.316 21.145z" transform="translate(-125 -72) translate(125 72) translate(24.906)"/>
                    <path fill="#000" d="M46.4 71.728l-12.404 37.11c-.747 2.241-2.241 4.01-4.11 5.13-1.842-1.12-3.361-2.864-4.109-5.13L13.35 71.728 29.887 42.39l16.512 29.34z" transform="translate(-125 -72) translate(125 72) translate(24.906)"/>
                    <path fill="#B8BAC4" d="M29.887 42.39L13.374 71.727 2.79 40.123C.523 33.323-.274 26.101.5 18.978L2.29 2.217C2.541-.1 5.63-.747 6.774 1.295L29.887 42.39zM47.67 109.61l-8.195 4.533c-3.138 1.743-6.749 1.494-9.563-.2 1.843-1.12 3.337-2.889 4.11-5.13l12.402-37.11 7.97 14.172c4.732 8.443 1.694 19.077-6.725 23.735z" transform="translate(-125 -72) translate(125 72) translate(24.906)"/>
                </g>
                <g fill="#1D153E">
                    <path d="M4.558 12.752H1.644v9.837H.124V.075h4.932c5.653 0 8.493 2.092 8.493 6.251 0 1.893-.548 3.337-1.669 4.383-1.12 1.022-2.515 1.594-4.21 1.694.45.15.873.423 1.296.847.399.398.922 1.07 1.52 2.017l4.657 7.347H13.25L9.016 15.89c-.722-1.17-1.395-1.968-2.018-2.44-.622-.45-1.42-.698-2.44-.698zm.498-11.283H1.644v9.938h3.412c2.266 0 3.985-.399 5.155-1.196 1.17-.797 1.744-2.092 1.744-3.86 0-1.768-.573-3.014-1.744-3.76-1.145-.748-2.864-1.122-5.155-1.122zM38.952 22.614c-.697-2.241-1.469-4.632-2.34-7.197h-10.81c-.871 2.565-1.668 4.98-2.34 7.197h-1.57C24.756 13.723 27.595 6.202 30.41.1h1.619c3.013 6.475 5.853 13.997 8.517 22.514h-1.594zm-7.745-21.02c-1.52 3.412-3.163 7.571-4.932 12.453h9.838c-1.743-4.882-3.387-9.041-4.906-12.453zM54.693 22.614h-5.33V.1h4.408c2.84 0 5.006.423 6.55 1.295 1.545.847 2.292 2.316 2.292 4.408 0 2.69-1.046 4.408-3.163 5.205 1.17.324 2.142.922 2.914 1.843.772.897 1.145 2.142 1.145 3.711 0 2.242-.747 3.836-2.241 4.732-1.52.872-3.686 1.32-6.575 1.32zM50.857 1.47v9.041h5.18c3.313 0 4.982-1.544 4.982-4.657 0-1.694-.623-2.84-1.843-3.462-1.22-.623-3.039-.922-5.43-.922h-2.889zm0 10.361v9.39h3.786c2.44 0 4.259-.324 5.48-.972 1.195-.647 1.792-1.893 1.792-3.736 0-3.138-1.967-4.707-5.927-4.707h-5.13v.025zM86.323 21.22L86.323 22.614 73.522 22.614 73.522.1 86.323.1 86.323 1.494 75.041 1.494 75.041 10.311 84.729 10.311 84.729 11.706 75.041 11.706 75.041 21.269 86.323 21.269zM109.46 1.469L102.312 1.469 102.312 22.614 100.768 22.614 100.768 1.469 93.62 1.469 93.62.075 109.46.075 109.46 1.469z" transform="translate(-125 -72) translate(125 72) translate(0 133.245)"/>
                </g>
            </g>
        </g>
    </g>
</svg>
