<svg xmlns="http://www.w3.org/2000/svg" width="16" height="19" viewBox="0 0 16 19">
    <g fill="none" fill-rule="evenodd">
        <g fill="#CE3D3D" fill-rule="nonzero">
            <g>
                <path d="M15.362 2.945c.352 0 .638.285.638.638 0 .32-.236.585-.544.63l-.094.008-.835-.001v11.878c0 1.514-1.2 2.755-2.697 2.842l-.168.005H4.3c-1.514 0-2.737-1.183-2.823-2.68l-.005-.167V4.22H.638C.286 4.22 0 3.936 0 3.584c0-.32.236-.586.544-.631l.094-.007h14.724zM13.251 4.22H2.748v11.878c0 .825.615 1.493 1.41 1.564l.142.007h7.362c.824 0 1.51-.632 1.583-1.429l.007-.142L13.25 4.22zM9.963 6.871c.32 0 .586.236.631.544l.007.094v6.871c0 .353-.285.638-.638.638-.32 0-.585-.236-.63-.543l-.008-.095V7.51c0-.353.286-.639.638-.639zm-3.926 0c.32 0 .585.236.63.544l.008.094v6.871c0 .353-.286.638-.638.638-.32 0-.586-.236-.631-.543l-.007-.095V7.51c0-.353.285-.639.638-.639zM9.963 0c.353 0 .638.286.638.638 0 .32-.236.586-.544.631l-.094.007H6.037c-.353 0-.638-.286-.638-.638 0-.32.236-.586.544-.631L6.037 0h3.926z" transform="translate(-155.000000, -367.000000) translate(155.000000, 367.000000)"/>
            </g>
        </g>
    </g>
</svg>
