<?xml version="1.0" encoding="UTF-8"?>
<svg width="17px" height="16px" viewBox="0 0 17 16" version="1.1" xmlns="http://www.w3.org/2000/svg" xmlns:xlink="http://www.w3.org/1999/xlink">
    <title>Arrow, Right</title>
    <g id="Page-1" stroke="none" stroke-width="1" fill="none" fill-rule="evenodd">
        <g id="Payment-(Error)" transform="translate(-195.000000, -325.000000)" fill="#B1B1B1" fill-rule="nonzero">
            <g id="Group-2-Copy" transform="translate(16.000000, 84.000000)">
                <g id="Group-Copy-5" transform="translate(11.000000, 197.000000)">
                    <g id="Arrow,-Right" transform="translate(176.470588, 52.000000) rotate(-90.000000) translate(-176.470588, -52.000000) translate(168.470588, 43.529412)">
                        <path d="M1.63328129,0.332837653 L1.7035469,0.393714955 L9.22877566,7.94571495 C9.45109575,8.16882596 9.47076869,8.51736161 9.2881692,8.76267384 L9.22732156,8.83294216 L1.69790979,16.3397657 C1.45250711,16.5844322 1.05522758,16.5838353 0.810561107,16.3384327 C0.588137044,16.1153393 0.56840991,15.7667279 0.751036037,15.5213662 L0.81189413,15.451084 L7.89667974,8.3869281 L0.814623032,1.27948766 C0.592259961,1.05633352 0.572628122,0.707716735 0.755321313,0.46240498 L0.816198615,0.392139372 C1.03935275,0.169776301 1.38796954,0.150144462 1.63328129,0.332837653 Z M7.59406561,0.332837653 L7.66433122,0.393714955 L15.18956,7.94571495 C15.4118801,8.16882596 15.431553,8.51736161 15.2489535,8.76267384 L15.1881059,8.83294216 L7.65869411,16.3397657 C7.41329143,16.5844322 7.01601189,16.5838353 6.77134542,16.3384327 C6.54892136,16.1153393 6.52919422,15.7667279 6.71182035,15.5213662 L6.77267844,15.451084 L13.8574641,8.3869281 L6.77540735,1.27948766 C6.55304427,1.05633352 6.53341244,0.707716735 6.71610563,0.46240498 L6.77698293,0.392139372 C7.00013706,0.169776301 7.34875385,0.150144462 7.59406561,0.332837653 Z" id="Combined-Shape"></path>
                    </g>
                </g>
            </g>
        </g>
    </g>
</svg>