<svg xmlns="http://www.w3.org/2000/svg" width="24" height="46" viewBox="0 0 24 46">
    <g fill="none">
        <path fill="#B8BAC4" d="M11.61 44.536c-1.093.661-2.508.751-3.732.075l-3.206-1.774c-3.292-1.82-4.472-5.97-2.627-9.25l3.115-5.534 4.85 14.48c.29.882.876 1.57 1.6 2.003zM22.186 15.72l-4.13 12.334-6.445-11.452L20.637.564c.448-.798 1.655-.547 1.75.361l.696 6.54c.298 2.784-.009 5.6-.897 8.255z"/>
        <path fill="#000" d="M18.056 28.053l-4.846 14.48c-.294.877-.876 1.566-1.6 2.003-.724-.432-1.31-1.12-1.601-2.002l-4.85-14.481L11.61 16.6l6.447 11.452z"/>
        <path fill="#B8BAC4" d="M11.61 16.6L5.16 28.054 1.031 15.719C.143 13.065-.164 10.25.134 7.464L.83.924C.928.013 2.132-.238 2.58.561L11.61 16.6zM18.544 42.837l-3.202 1.774c-1.227.676-2.639.586-3.732-.075.724-.436 1.305-1.125 1.6-2.002l4.846-14.481 3.115 5.533c1.845 3.281.665 7.43-2.627 9.251z"/>
    </g>
</svg>
