<svg xmlns="http://www.w3.org/2000/svg" width="18" height="18" viewBox="0 0 18 18">
    <g fill="none" fill-rule="evenodd">
        <g fill="#000" fill-rule="nonzero">
            <g>
                <g>
                    <path d="M9 0c4.981 0 9 4.019 9 9s-4.019 9-9 9-9-4.019-9-9 4.019-9 9-9zM5.602 12.376H1.879c1.095 2.313 3.282 4.001 5.902 4.406-1.03-1.332-1.756-2.834-2.18-4.406zm10.519 0h-3.723c-.423 1.572-1.15 3.074-2.178 4.406 2.619-.405 4.806-2.093 5.9-4.406zm-4.892 0H6.77C7.214 13.863 7.957 15.273 9 16.5c1.043-1.228 1.786-2.638 2.229-4.125zM5.352 6.75L1.449 6.75c-.21.712-.324 1.468-.324 2.25 0 .783.113 1.538.324 2.251h3.903c-.261-1.487-.261-3.014 0-4.5zm6.152 0H6.496c-.287 1.483-.287 3.016 0 4.5h5.008c.287-1.484.287-3.017 0-4.5zm5.047-.001h-3.903c.261 1.487.261 3.014 0 4.5l3.903.001c.21-.713.324-1.468.324-2.251 0-.782-.113-1.538-.324-2.25zM7.78 1.218l-.224.038c-2.52.465-4.614 2.122-5.677 4.37L5.6 5.624c.424-1.572 1.15-3.075 2.179-4.407zm1.22.28l-.022.027C7.946 2.747 7.21 4.148 6.77 5.625h4.458C10.786 4.138 10.043 2.727 9 1.5zm1.22-.28l.057.074c.998 1.314 1.706 2.79 2.122 4.333h3.722c-1.094-2.313-3.282-4.002-5.902-4.407z" transform="translate(-155.000000, -329.000000) translate(155.000000, 328.000000) translate(0.000000, 1.000000)"/>
                </g>
            </g>
        </g>
    </g>
</svg>
